<?xml version="1.0" ?><svg id="Layer_1" style="enable-background:new 0 0 512 512;" version="1.1" viewBox="0 0 512 512" xml:space="preserve" xmlns="http://www.w3.org/2000/svg" xmlns:xlink="http://www.w3.org/1999/xlink"><g id="XMLID_896_"><rect height="444.8" id="XMLID_929_" width="49" x="16.5" y="46.3"/><rect height="445.3" id="XMLID_928_" width="49" x="446.5" y="45.7"/><path d="M68.3,349v142h373V349H68.3z M125.8,486.8h-47v-105h47V486.8z M186.8,486.8h-47v-105h47V486.8z    M247.8,486.8h-47v-105h47V486.8z M308.8,486.8h-47v-105h47V486.8z M369.8,486.8h-47v-105h47V486.8z M430.8,486.8h-47v-105h47   V486.8z" id="XMLID_920_"/><path d="M68,74.1v270h373v-270H68z M430.5,336.5h-352V81.7h352V336.5z" id="XMLID_917_"/><g id="XMLID_906_"><rect height="260.1" id="XMLID_916_" width="4.1" x="250.7" y="78.1"/><rect height="260.1" id="XMLID_915_" width="4.1" x="188.7" y="78.1"/><rect height="260.1" id="XMLID_914_" width="4.1" x="126.7" y="78.1"/><rect height="260.1" id="XMLID_913_" width="4.1" x="374.7" y="78.1"/><rect height="260.1" id="XMLID_912_" width="4.1" x="312.7" y="78.1"/><rect height="4.1" id="XMLID_911_" width="365" x="72.3" y="210.2"/><rect height="4.1" id="XMLID_910_" width="365" x="72.3" y="298.2"/><rect height="4.1" id="XMLID_909_" width="365" x="72.3" y="254.2"/><rect height="4.1" id="XMLID_908_" width="365" x="72.3" y="122.2"/><rect height="4.1" id="XMLID_907_" width="365" x="72.3" y="166.2"/></g><g id="XMLID_903_"><rect height="10" id="XMLID_905_" width="49" x="16.5" y="33"/><rect height="10" id="XMLID_904_" width="43" x="19.5" y="21"/></g><g id="XMLID_900_"><rect height="10" id="XMLID_902_" width="49" x="446.5" y="33"/><rect height="10" id="XMLID_901_" width="43" x="449.5" y="21"/></g><path d="M68,23.1V73h373V23.1H68z M430.8,68.7H78.5V31h352.3V68.7z" id="XMLID_897_"/></g></svg>