<?xml version="1.0" ?><svg id="Layer_1" style="enable-background:new 0 0 512 512;" version="1.1" viewBox="0 0 512 512" xml:space="preserve" xmlns="http://www.w3.org/2000/svg" xmlns:xlink="http://www.w3.org/1999/xlink"><g id="XMLID_117_"><path d="M154.6,485h54V184.5h-54V485z M191.5,189.8h13.6v10.7h-13.6V189.8z M191.5,207.3h13.6V218h-13.6V207.3z    M191.5,224.7h13.6v10.7h-13.6V224.7z M191.5,242.2h13.6v10.7h-13.6V242.2z M191.5,259.6h13.6v10.7h-13.6V259.6z M191.5,277.1h13.6   v10.7h-13.6V277.1z M191.5,294.5h13.6v10.7h-13.6V294.5z M191.5,312h13.6v10.7h-13.6V312z M191.5,329.4h13.6v10.7h-13.6V329.4z    M191.5,346.9h13.6v10.7h-13.6V346.9z M191.5,364.3h13.6V375h-13.6V364.3z M191.5,381.8h13.6v10.7h-13.6V381.8z M191.5,399.2h13.6   v10.7h-13.6V399.2z M191.5,416.7h13.6v10.7h-13.6V416.7z M191.5,434.1h13.6v10.7h-13.6V434.1z M191.5,451.5h13.6v10.7h-13.6V451.5z    M191.5,469h13.6v10.7h-13.6V469z M159.4,189.8H173v10.7h-13.6V189.8z M159.4,207.3H173V218h-13.6V207.3z M159.4,224.7H173v10.7   h-13.6V224.7z M159.4,242.2H173v10.7h-13.6V242.2z M159.4,259.6H173v10.7h-13.6V259.6z M159.4,277.1H173v10.7h-13.6V277.1z    M159.4,294.5H173v10.7h-13.6V294.5z M159.4,312H173v10.7h-13.6V312z M159.4,329.4H173v10.7h-13.6V329.4z M159.4,346.9H173v10.7   h-13.6V346.9z M159.4,364.3H173V375h-13.6V364.3z M159.4,381.8H173v10.7h-13.6V381.8z M159.4,399.2H173v10.7h-13.6V399.2z    M159.4,416.7H173v10.7h-13.6V416.7z M159.4,434.1H173v10.7h-13.6V434.1z M159.4,451.5H173v10.7h-13.6V451.5z M159.4,469H173v10.7   h-13.6V469z" id="XMLID_1483_"/><path d="M208.4,155.2L208.4,155.2c-4.8,10.2-15,17.2-27,17.2c-11.9,0-22.2-7.1-26.9-17.2h-0.1v28.1h54V155.2z" id="XMLID_1517_"/><circle cx="181.4" cy="141.6" id="XMLID_1518_" r="29.7"/><path d="M390.3,485h54V184.5h-54V485z M427.2,189.8h13.6v10.7h-13.6V189.8z M427.2,207.3h13.6V218h-13.6V207.3z    M427.2,224.7h13.6v10.7h-13.6V224.7z M427.2,242.2h13.6v10.7h-13.6V242.2z M427.2,259.6h13.6v10.7h-13.6V259.6z M427.2,277.1h13.6   v10.7h-13.6V277.1z M427.2,294.5h13.6v10.7h-13.6V294.5z M427.2,312h13.6v10.7h-13.6V312z M427.2,329.4h13.6v10.7h-13.6V329.4z    M427.2,346.9h13.6v10.7h-13.6V346.9z M427.2,364.3h13.6V375h-13.6V364.3z M427.2,381.8h13.6v10.7h-13.6V381.8z M427.2,399.2h13.6   v10.7h-13.6V399.2z M427.2,416.7h13.6v10.7h-13.6V416.7z M427.2,434.1h13.6v10.7h-13.6V434.1z M427.2,451.5h13.6v10.7h-13.6V451.5z    M427.2,469h13.6v10.7h-13.6V469z M414.6,189.8h3.8v58.8h-3.8V189.8z M414.6,257.7h3.8v58.8h-3.8V257.7z M414.6,325.6h3.8v58.8   h-3.8V325.6z M414.6,393.5h3.8v58.8h-3.8V393.5z M414.6,461.3h3.8v18.4h-3.8V461.3z M395.1,189.8h13.6v10.7h-13.6V189.8z    M395.1,207.3h13.6V218h-13.6V207.3z M395.1,224.7h13.6v10.7h-13.6V224.7z M395.1,242.2h13.6v10.7h-13.6V242.2z M395.1,259.6h13.6   v10.7h-13.6V259.6z M395.1,277.1h13.6v10.7h-13.6V277.1z M395.1,294.5h13.6v10.7h-13.6V294.5z M395.1,312h13.6v10.7h-13.6V312z    M395.1,329.4h13.6v10.7h-13.6V329.4z M395.1,346.9h13.6v10.7h-13.6V346.9z M395.1,364.3h13.6V375h-13.6V364.3z M395.1,381.8h13.6   v10.7h-13.6V381.8z M395.1,399.2h13.6v10.7h-13.6V399.2z M395.1,416.7h13.6v10.7h-13.6V416.7z M395.1,434.1h13.6v10.7h-13.6V434.1z    M395.1,451.5h13.6v10.7h-13.6V451.5z M395.1,469h13.6v10.7h-13.6V469z" id="XMLID_1521_"/><path d="M418.4,172.4c-11.9,0-22.2-7.1-26.9-17.2h-0.1v28.1h54v-28.1h-0.1C440.7,165.4,430.4,172.4,418.4,172.4z" id="XMLID_1560_"/><circle cx="418.4" cy="141.6" id="XMLID_1561_" r="29.7"/><path d="M9,485h54V130.5H9V485z M58.3,479.7H37.7V136.8h20.6V479.7z M13.6,136.8h19.2v342.9H13.6V136.8z" id="XMLID_1564_"/><polygon id="XMLID_1566_" points="61.1,129.5 61.1,75.4 9,129.3  "/><rect height="3.1" id="XMLID_1567_" transform="matrix(0.695 -0.7191 0.7191 0.695 -62.1437 54.6709)" width="75.5" x="-4.4" y="99"/><path d="M449,485h54V130.5h-54V485z M498.4,479.7h-19.2V136.8h19.2V479.7z M453.7,136.8h20.6v342.9h-20.6V136.8z" id="XMLID_1570_"/><polygon id="XMLID_1572_" points="450.9,129.5 503,129.3 450.9,75.4  "/><rect height="75.5" id="XMLID_1573_" transform="matrix(0.7191 -0.6949 0.6949 0.7191 64.5703 360.8812)" width="3.1" x="477.1" y="62.8"/><path d="M65.3,485h85.6V77.5H65.3V485z M70,86.3h76.3v10.2H70V86.3z M70,102.2h76.3v10.2H70V102.2z M70,118h76.3   v10.2H70V118z M70,133.8h76.3V144H70V133.8z M70,149.6h76.3v10.2H70V149.6z M70,165.4h76.3v10.2H70V165.4z M70,181.2h76.3v10.2H70   V181.2z M70,197.1h76.3v10.2H70V197.1z M70,212.9h76.3v10.2H70V212.9z M70,228.7h76.3v10.2H70V228.7z M70,244.5h76.3v10.2H70V244.5   z M70,260.3h76.3v10.2H70V260.3z M70,276.1h76.3v10.2H70V276.1z M70,292h76.3v10.2H70V292z M70,307.8h76.3V318H70V307.8z M70,323.6   h76.3v10.2H70V323.6z M70,339.4h76.3v10.2H70V339.4z M70,355.2h76.3v10.2H70V355.2z M70,371.1h76.3v10.2H70V371.1z M70,386.9h76.3   v10.2H70V386.9z M70,402.7h76.3v10.2H70V402.7z M70,418.5h76.3v10.2H70V418.5z M70,434.3h76.3v10.2H70V434.3z M70,450.1h76.3v10.2   H70V450.1z M70,466h76.3v10.2H70V466z" id="XMLID_1576_"/><rect height="28.8" id="XMLID_1601_" width="85.6" x="65.3" y="45.6"/><rect height="5.8" id="XMLID_1602_" width="85.6" x="65.3" y="38.4"/><rect height="10.2" id="XMLID_1603_" width="58.4" x="313.6" y="372.8"/><rect height="10.2" id="XMLID_1604_" width="58.4" x="220.4" y="372.8"/><rect height="11" id="XMLID_1605_" width="58.4" x="313.6" y="344"/><rect height="11.7" id="XMLID_1606_" width="58.4" x="313.6" y="358"/><path d="M210.8,485h174.9V262.7H210.8V485z M218.4,483.1c0-34.4,27.9-62.3,62.3-62.3h10v62.3H218.4z M303.5,483.1   v-62.3h11.7c34.4,0,62.3,27.9,62.3,62.3H303.5z M310.3,386.3v-45.7h65.2v45.7H310.3z M298.9,317.4v-23.3h78.7v23.3H298.9z    M377.6,292.3h-78.7v-23.3h78.7V292.3z M218.4,269.1h78.7v23.3h-78.7v1.9h78.7v23.3h-78.7V269.1z M217,340.6h65.2v45.7H217V340.6z" id="XMLID_1609_"/><rect height="11" id="XMLID_1616_" width="58.4" x="220.4" y="344"/><rect height="11.7" id="XMLID_1617_" width="58.4" x="220.4" y="358"/><path d="M211.1,259.6H386V38H211.1V259.6z M320.8,240.8h-44.7v-35.4h44.7V240.8z M332.5,56.8h44.7v35.4h-44.7   V56.8z M332.5,131.1h44.7v35.4h-44.7V131.1z M332.5,205.4h44.7v35.4h-44.7V205.4z M276.2,56.8h44.7v35.4h-44.7V56.8z M274.6,131.1   h44.7v35.4h-44.7V131.1z M220,56.8h44.7v35.4H220V56.8z M220,131.1h44.7v35.4H220V131.1z M220,205.4h44.7v35.4H220V205.4z" id="XMLID_1620_"/></g></svg>